<?xml version="1.0" encoding="UTF-8"?> <!-- Creator: CorelDRAW 2021 (64-Bit) --> <svg xmlns="http://www.w3.org/2000/svg" xmlns:xlink="http://www.w3.org/1999/xlink" xmlns:xodm="http://www.corel.com/coreldraw/odm/2003" xml:space="preserve" width="266mm" height="266mm" style="shape-rendering:geometricPrecision; text-rendering:geometricPrecision; image-rendering:optimizeQuality; fill-rule:evenodd; clip-rule:evenodd" viewBox="0 0 26600 26600"> <defs> <style type="text/css"> <![CDATA[ .fil2 {fill:#222222} .fil0 {fill:#FD0017} .fil1 {fill:white} ]]> </style> </defs> <g id="Layer_x0020_1"> <metadata id="CorelCorpID_0Corel-Layer"></metadata> <g id="_1534336949152"> <g> <path class="fil0" d="M6190.24 18629.74c130.54,753.29 -3.91,1305.31 298.96,1681.39 724.45,899.49 2147.14,503.58 3086.16,264.69 839.42,-213.55 910.15,33.88 1553.54,331.71 184.21,-873.21 206.2,-1356.33 -110.2,-2209.6 -202.41,-545.86 -663.88,-1125.13 -1210.31,-1339.05 -1326.87,-519.45 -2694.16,499.46 -3618.15,1270.86z"></path> <path class="fil0" d="M11068.65 21023.29c-318.99,-429.99 -965.55,-515.45 -1467.84,-376.53 -574.46,158.88 -1115.85,304.49 -1724.55,291.88 -617.32,-12.78 -1038.55,-139.13 -1430.72,-584.92 -431.85,-490.88 -53.63,-1173.2 -330.63,-1617.84 -1342.35,1118.12 -3108.8,4590.06 -195.71,4376.47 486.26,-35.65 1122.86,-149.54 1564.68,-347.07 644.05,-287.94 620.02,-426.68 916.36,-994.8 267.12,-512.12 1014.32,-243.59 1457,-141.46 533.89,123.17 1011.18,-98.87 1211.41,-605.73z"></path> <path class="fil0" d="M16569.89 20888.37c200.89,144.29 444.73,543.41 1099.19,324.6 67.51,-1143.13 -24.7,-2479.36 -13.07,-3653.71 5.87,-593.51 14.59,-1181.8 34.45,-1775.1 12.12,-362.23 147.33,-1553.67 113.55,-1782.73 -125.68,-153.69 -597.66,-367.29 -799.88,-429.92 -105.66,498.7 86.51,475.99 138.35,816.54 18.33,120.35 -108.87,703.85 -134.93,872.81 -270.99,1757.45 -592.44,3880.46 -437.66,5627.51z"></path> <path class="fil0" d="M15268.02 4129.01c503.5,109.41 1189.26,441.91 2178.94,630.3 436.32,83.05 868.6,152.09 1314.97,114.67 564.76,-47.34 615.49,-183.13 1047.02,-390.9 -327.46,-306.93 -1792.85,-767.89 -2275.25,-898.49 -713.34,-193.11 -2099.99,-474.31 -2265.68,544.42z"></path> <path class="fil0" d="M15196.11 4094c207.92,-1044.75 1556.95,-780.49 2321.9,-586.21 413.64,105.05 812.28,237.44 1212.06,381.04 394.34,141.66 808.19,399.43 1145.65,516.89 150.47,-277.17 991.07,-623 -207.79,-1135.85 -437.3,-187.09 -1255.14,-431.49 -1724.95,-446.92 -960.52,-31.56 -2623.06,490.06 -3411.72,1008.59l664.85 262.46z"></path> <path class="fil0" d="M16698.31 21235.98l179.18 5.32c-471.54,-404.73 -437.13,-360.42 -402.79,-1451.68 39.4,-1252.08 136.73,-2242.23 303.85,-3479.91 68.01,-503.74 227.57,-1214.89 251.12,-1685.95 -926.87,679.42 -425.24,2712.1 -528.8,3621.02 -80.22,704.11 -526.99,994.12 -585.39,1588.54 -64.35,655.1 349.49,1040.91 782.83,1402.66z"></path> <path class="fil0" d="M17733.04 21276.61c131.5,-87.59 87.78,-253.81 90.58,-440.07l29.95 -1365.49c36.71,-1682.45 28.85,-3891.27 121.99,-5453.4l-328.27 -582.25c-218.64,-7.65 -424.33,-40.98 -560.42,64.91 301.03,207.95 619.69,208.57 809.92,548.44 1.76,242.56 -72.12,553.47 -86.95,822.83 -65.43,1188.46 -56.62,6254.37 -76.8,6405.03z"></path> <path class="fil0" d="M17994.46 13854.61c131.44,-361.31 -63.45,-372.56 -302.5,-521.36 -209.93,37.88 -201.32,-0.2 -379.45,-48.7l-542.22 -0.65 212.24 175.61c215.23,-123.21 489.04,-149.93 712.78,-75.17 161.17,167.21 116.84,361.58 299.15,470.27z"></path> <path class="fil0" d="M16897 13927.83l34.66 -419.16 -263.57 -178.93c-11.25,224.02 77.67,447.05 228.91,598.09z"></path> </g> <g> <path class="fil1" d="M20824.9 11557.14c199.2,193.27 274.54,177.84 450.89,441.67 697.53,1043.6 334.38,2487.58 104.47,3625.95 -99.23,491.33 -151.66,895.31 159.16,1328.75 696.89,-302.37 1526.35,-305.71 1624.59,-1221.7 20.8,-193.84 -37.29,-245.88 95.91,-314.72 -7.86,1608.03 -1421.35,1229.85 -1669.15,1598.25 -268.66,399.41 922.23,1438.9 1376.36,2120.39 360.75,541.36 1267.04,1975.56 762.01,2580.22 -367.68,-82.22 -426.22,-1328.97 -2557.81,-652.45 -262.37,83.26 -639.65,177.38 -844.36,331.79 233.71,80.25 1025.89,207.84 732.72,642.96 -258.47,73.58 -543.4,-85.17 -800.04,-151.4 -428.7,-110.62 -468.97,-53.84 -855.96,-3.17 36.95,-62.25 -27.8,-62.98 157.02,-113.64 56.93,-15.6 142.61,-21.85 200.59,-22.87 146.51,-2.58 302.38,21.35 445.45,54.35 270.8,62.43 554.81,207.7 828.15,176.91 3.64,-359.17 -325.15,-437.03 -648.41,-487.83l-1079.41 -81.53c-1389.91,70.84 -976.23,-12.86 -2110.05,-41.31 253.15,907.58 748.08,1351.07 217.55,2358.21 722.81,273.56 4685.35,64.02 5717.95,25.11 568.93,-21.45 893.75,171.64 1111.13,-389.69 329.11,-849.92 617.42,-3131.29 445.39,-3903.49 -169.39,-760.32 151.28,-3540.83 -475.48,-5438.16 -284.15,-860.13 -620.11,-1125.94 -1388.89,-1568.55 -447.32,-257.54 -1511.71,-789.03 -1999.78,-894.05z"></path> <path class="fil1" d="M17975.56 14017.65c-93.14,1562.13 -85.28,3770.95 -121.99,5453.4l-29.95 1365.49c-2.8,186.26 40.92,352.48 -90.58,440.07 90.31,60.33 -63.34,12.97 115.23,58.95 338.87,87.27 1549.56,11.42 2009.68,40.95 180.72,11.6 1499.11,-431.31 1782.39,-518.69 -21.41,-532.61 -543.36,-733.4 -391.87,-1631.33 48.02,-284.58 139.33,-563.24 184.33,-854.39 58.43,-377.99 -46.2,-557.39 4.58,-955.48 126.1,-988.54 -401.56,-477.62 -129.99,-1775.76 229.27,-1095.91 564.46,-2525.38 -47.77,-3539.17 -79.39,-131.46 -947.64,-849.46 -1323.01,-58.48 -315.15,664.07 -587.28,1502.75 -1180.09,1963.19 -304.59,236.58 -483.49,78.13 -780.96,11.25z"></path> <path class="fil1" d="M14660.36 15831.15c11.51,355.72 -341.65,1022.07 -94.99,1825.41 102.86,335.02 560.32,1134.59 860.79,1235.3 18.61,-318.77 -156.37,-864.67 193.63,-917.62 452.04,368.85 -99.45,2949.2 363.23,3600.58 262.59,-94.49 368.1,-237.88 715.29,-338.84 -433.34,-361.75 -847.18,-747.56 -782.83,-1402.66 58.4,-594.42 505.17,-884.43 585.39,-1588.54 103.56,-908.92 -398.07,-2941.6 528.8,-3621.02 98.12,-296.27 -45.15,-412.26 -132.67,-695.93 -151.24,-151.04 -240.16,-374.07 -228.91,-598.09 -207.65,-410.35 -300.68,-74.15 -383.63,-1094.67 -617.87,285.65 -2377.06,2550.17 -2607.43,3459.02 193.67,-408.3 985.82,-1771.32 1512.45,-1490.67 102.27,262.64 -97.63,603.68 -201.58,858.5l-327.54 769.23z"></path> <path class="fil1" d="M16166.3 10551.15l120.15 197.54c219.93,547.02 573.85,912.13 1152.31,1073.91 711.73,199.05 1360.64,-167.08 1744.94,-713.07 324.49,-461.03 168.14,-493.06 253.34,-1018.82 125.44,-774.06 209.35,-568.83 310.35,-968.75 222,-878.98 152.49,-1151.93 -529.77,-1171.81 -236.05,-6.89 -423.45,-21.9 -576.82,128.18 417.49,49.1 1039.35,271.36 1132.9,696.11 -282.28,425.58 -1638.05,378.97 -1393.97,-662.59l-460.88 -7.34c-41.2,202.11 39.24,1441.53 -1247.53,893.98 -522.97,-222.54 -203.42,-350.32 -601.08,-539.23 -242.19,-115.06 -509.65,-393.36 -752.61,-390.27 -79.16,295.46 7.41,788.17 107.85,1081.45 60.11,175.5 134.8,229.35 189.22,402.75 82.46,262.62 129.49,219.15 371.07,182.31l180.53 815.65z"></path> <path class="fil1" d="M13432.82 21383.23c-76.83,181.56 -533.26,416.89 -679.52,679.82 50.12,297.59 129.13,599.98 192.38,894.77 239.87,1117.98 340.36,693.08 1072.64,237.54 459.25,-285.69 369.77,-109.8 870.21,-83.4 425.64,22.47 1162.66,-21.73 1538.04,-240.24l213.83 -196.65c64.26,-60.9 15.45,-19.92 88.13,-62.28 -87.01,428.79 -761.68,494.3 -1138.32,566.5 274.66,115.89 1182.21,330.88 1451.3,265.48 312.43,-349.06 184.37,-1625.63 62.47,-2088.41 -452.7,-76.73 -703.59,4.83 -1052.21,295.15 157.24,98.29 429.15,133.98 527.29,277.53 -279.47,-24.52 -1190.73,-434.21 -1543.28,-555.14 -1344.34,-461.17 -1114.22,-105.39 -1602.96,9.33z"></path> <path class="fil1" d="M16942.03 2538.57c-101.52,95.42 -271.27,122.02 -427.71,169.45l-1363.66 410.75c-288.3,83.22 -1680.4,469.01 -1812.18,602.96 -13.38,265.74 133.4,254.17 370.13,360.58 404.51,181.85 1197.02,608 1536.09,714.77 -1.19,-257.1 -86.61,-383.24 -48.59,-703.08l-664.85 -262.46c788.66,-518.53 2451.2,-1040.15 3411.72,-1008.59 469.81,15.43 1287.65,259.83 1724.95,446.92 1198.86,512.85 358.26,858.68 207.79,1135.85l381.48 284.15c248.99,-111.44 1307.16,-589.63 1381.86,-775.29 222.37,-552.75 -879.84,-673.3 -1286.66,-783.24l-2512.31 -674.64c-499.63,-125.91 -516.71,95.69 -898.06,81.87z"></path> <path class="fil1" d="M21763.38 20808.9c345.23,-45.4 938.25,-8.41 1255.42,140.03 594.98,278.48 420.03,616.51 701.43,662.67 317.19,-594.48 -442.23,-1902.41 -795.91,-2388.88 -399.16,-549.03 -1158.03,-1379.1 -1409.17,-1833.46 -64.83,402.69 52.23,573.96 -4,951.95 -135.78,912.66 -501.97,1234.83 252.23,2467.69z"></path> <path class="fil1" d="M19908.85 6635.03c-581.1,595.36 -1280.58,832.35 -2151.05,777.08 -1208.71,-76.75 -1942.11,-568.67 -2249.1,-613.38 -96.36,872.22 -217.87,1348.78 727.35,1641.41 23.15,-216.6 33.87,-344.27 158.75,-527.27 293.54,-55.21 1129.08,-7.64 1338.15,209.44 93.33,369.89 -168.26,483.03 -482.26,557.08 -320.98,75.71 -583.6,-10.68 -890.44,-67.95 118.24,336.69 640.67,462.9 987.37,427.48 472.75,-48.3 477.42,-614.2 471.28,-979.14 238.53,-56.29 368.61,-20.3 578.35,-46.21 113.35,-14.01 1150.03,-391.44 1484.01,126.68l27.59 -1505.22z"></path> <path class="fil1" d="M16770.29 13283.9l542.22 0.65c-659.91,-593.13 -566.44,-752.91 -804.34,-1576.1 -330.03,847.49 -1351.64,342.7 -2250.71,1393.79 -135.48,158.36 -187.92,410.05 -304.39,607.76 -119.42,202.67 -274.82,381.3 -361.71,596.27 -100.04,247.48 -132.59,1371.19 -168.08,1736.76 301.93,-341.21 392.26,-1448.01 2045.82,-3184.1 283.88,-298.02 625.01,-532.92 900.87,-782.2 40.86,467.66 -66.13,889.57 400.32,1207.17z"></path> <path class="fil1" d="M17691.96 13333.25c239.05,148.8 433.94,160.05 302.5,521.36 270.95,439.56 677.35,127.94 921.83,-100.7 422.33,-394.99 700.39,-1314.63 1006.6,-1813.18 287.24,-467.68 495.54,-368.99 962.9,-228.8 -332.24,-187.12 -762.45,-469.06 -1188.62,-498.98 -52.37,551.03 -1506.3,1877.87 -2005.21,2120.3z"></path> <path class="fil1" d="M15479.25 23786.42c320.53,-37.54 1712.78,-280.21 1908.37,-160.04 299.64,-490.17 183.01,-1410.73 -121.34,-1837.47 -3.8,495.69 135.02,1102.03 -75.99,1572.78 -212.3,473.62 -1420.64,-171.27 -2072.94,-166.98 -498.59,3.28 -667.63,-95.25 -734.29,-97.66 -197.64,-7.12 -816.99,503.33 -970.08,630.02 770.93,151.94 1288.12,150.5 2066.27,59.35z"></path> <path class="fil1" d="M16319.07 8495.38c394.2,194.26 1321.56,278.93 1355.3,-314.57 -242.53,-196.87 -926.74,-247.33 -1234.21,-205.68 -111.84,152.92 -143.68,333.36 -121.09,520.25z"></path> <path class="fil1" d="M19686.4 8791.83c31.88,-358.67 -905.8,-675.99 -1223.35,-672.75 -270.28,851.66 782.96,1011.54 1223.35,672.75z"></path> <path class="fil1" d="M20357.4 6325.52c215.34,179.77 29.02,248.19 347.1,200.32l-65.31 -259.61 -281.79 59.29z"></path> <path class="fil1" d="M20258.11 6495.47c193.52,109.3 112.38,46.2 137.71,-48.7 -78.63,-28.06 -61.69,-68.34 -137.71,48.7z"></path> </g> <path class="fil2" d="M17266.28 21788.91c304.35,426.74 420.98,1347.3 121.34,1837.47 -104.62,-64.27 -516.49,25.03 -958.7,81.45 -384.52,49.05 -800.59,61.13 -949.67,78.59 -778.15,91.15 -1295.34,92.59 -2066.27,-59.35 153.09,-126.69 772.44,-637.14 970.08,-630.02 66.66,2.41 235.7,100.94 734.29,97.66 652.3,-4.29 1860.64,640.6 2072.94,166.98 211.01,-470.75 72.19,-1077.09 75.99,-1572.78zm-3833.46 -405.68c488.74,-114.72 258.62,-470.5 1602.96,-9.33 352.55,120.93 1263.81,530.62 1543.28,555.14 -98.14,-143.55 -370.05,-179.24 -527.29,-277.53 348.62,-290.32 599.51,-371.88 1052.21,-295.15 121.9,462.78 249.96,1739.35 -62.47,2088.41 -269.09,65.4 -1176.64,-149.59 -1451.3,-265.48 376.64,-72.2 1051.31,-137.71 1138.32,-566.5 -72.68,42.36 -23.87,1.38 -88.13,62.28l-213.83 196.65c-375.38,218.51 -1112.4,262.71 -1538.04,240.24 -500.44,-26.4 -410.96,-202.29 -870.21,83.4 -732.28,455.54 -832.77,880.44 -1072.64,-237.54 -63.25,-294.79 -142.26,-597.18 -192.38,-894.77 146.26,-262.93 602.69,-498.26 679.52,-679.82zm8082.33 -3993.97c251.14,454.36 1010.01,1284.43 1409.17,1833.46 353.68,486.47 1113.1,1794.4 795.91,2388.88 -281.4,-46.16 -106.45,-384.19 -701.43,-662.67 -317.17,-148.44 -910.19,-185.43 -1255.42,-140.03 -754.2,-1232.86 -388.01,-1555.03 -252.23,-2467.69 56.23,-377.99 -60.83,-549.26 4,-951.95zm-3824.69 -1605.1c-19.86,593.3 -28.58,1181.59 -34.45,1775.1 -11.63,1174.35 80.58,2510.58 13.07,3653.71 -654.46,218.81 -898.3,-180.31 -1099.19,-324.6 -154.78,-1747.05 166.67,-3870.06 437.66,-5627.51 26.06,-168.96 153.26,-752.46 134.93,-872.81 -51.84,-340.55 -244.01,-317.84 -138.35,-816.54 202.22,62.63 674.2,276.23 799.88,429.92 33.78,229.06 -101.43,1420.5 -113.55,1782.73zm-793.46 -1856.33c87.52,283.67 230.79,399.66 132.67,695.93 -23.55,471.06 -183.11,1182.21 -251.12,1685.95 -167.12,1237.68 -264.45,2227.83 -303.85,3479.91 -34.34,1091.26 -68.75,1046.95 402.79,1451.68l-179.18 -5.32c-347.19,100.96 -452.7,244.35 -715.29,338.84 -462.68,-651.38 88.81,-3231.73 -363.23,-3600.58 -350,52.95 -175.02,598.85 -193.63,917.62 -300.47,-100.71 -757.93,-900.28 -860.79,-1235.3 -246.66,-803.34 106.5,-1469.69 94.99,-1825.41l327.54 -769.23c103.95,-254.82 303.85,-595.86 201.58,-858.5 -526.63,-280.65 -1318.78,1082.37 -1512.45,1490.67 230.37,-908.85 1989.56,-3173.37 2607.43,-3459.02 82.95,1020.52 175.98,684.32 383.63,1094.67l263.57 178.93 -34.66 419.16zm1078.56 89.82c297.47,66.88 476.37,225.33 780.96,-11.25 592.81,-460.44 864.94,-1299.12 1180.09,-1963.19 375.37,-790.98 1243.62,-72.98 1323.01,58.48 612.23,1013.79 277.04,2443.26 47.77,3539.17 -271.57,1298.14 256.09,787.22 129.99,1775.76 -50.78,398.09 53.85,577.49 -4.58,955.48 -45,291.15 -136.31,569.81 -184.33,854.39 -151.49,897.93 370.46,1098.72 391.87,1631.33 -283.28,87.38 -1601.67,530.29 -1782.39,518.69 -460.12,-29.53 -1670.81,46.32 -2009.68,-40.95 -178.57,-45.98 -24.92,1.38 -115.23,-58.95 20.18,-150.66 11.37,-5216.57 76.8,-6405.03 14.83,-269.36 88.71,-580.27 86.95,-822.83 -190.23,-339.87 -508.89,-340.49 -809.92,-548.44 136.09,-105.89 341.78,-72.56 560.42,-64.91l328.27 582.25zm2849.34 -2460.51c488.07,105.02 1552.46,636.51 1999.78,894.05 768.78,442.61 1104.74,708.42 1388.89,1568.55 626.76,1897.33 306.09,4677.84 475.48,5438.16 172.03,772.2 -116.28,3053.57 -445.39,3903.49 -217.38,561.33 -542.2,368.24 -1111.13,389.69 -1032.6,38.91 -4995.14,248.45 -5717.95,-25.11 530.53,-1007.14 35.6,-1450.63 -217.55,-2358.21 1133.82,28.45 720.14,112.15 2110.05,41.31l1079.41 81.53c323.26,50.8 652.05,128.66 648.41,487.83 -273.34,30.79 -557.35,-114.48 -828.15,-176.91 -143.07,-33 -298.94,-56.93 -445.45,-54.35 -57.98,1.02 -143.66,7.27 -200.59,22.87 -184.82,50.66 -120.07,51.39 -157.02,113.64 386.99,-50.67 427.26,-107.45 855.96,3.17 256.64,66.23 541.57,224.98 800.04,151.4 293.17,-435.12 -499.01,-562.71 -732.72,-642.96 204.71,-154.41 581.99,-248.53 844.36,-331.79 2131.59,-676.52 2190.13,570.23 2557.81,652.45 505.03,-604.66 -401.26,-2038.86 -762.01,-2580.22 -454.13,-681.49 -1645.02,-1720.98 -1376.36,-2120.39 247.8,-368.4 1661.29,9.78 1669.15,-1598.25 -133.2,68.84 -75.11,120.88 -95.91,314.72 -98.24,915.99 -927.7,919.33 -1624.59,1221.7 -310.82,-433.44 -258.39,-837.42 -159.16,-1328.75 229.91,-1138.37 593.06,-2582.35 -104.47,-3625.95 -176.35,-263.83 -251.69,-248.4 -450.89,-441.67zm-2830.44 2297.47c-182.31,-108.69 -137.98,-303.06 -299.15,-470.27 -223.74,-74.76 -497.55,-48.04 -712.78,75.17l-212.24 -175.61c-466.45,-317.6 -359.46,-739.51 -400.32,-1207.17 -275.86,249.28 -616.99,484.18 -900.87,782.2 -1653.56,1736.09 -1743.89,2842.89 -2045.82,3184.1 35.49,-365.57 68.04,-1489.28 168.08,-1736.76 86.89,-214.97 242.29,-393.6 361.71,-596.27 116.47,-197.71 168.91,-449.4 304.39,-607.76 899.07,-1051.09 1920.68,-546.3 2250.71,-1393.79 237.9,823.19 144.43,982.97 804.34,1576.1 178.13,48.5 169.52,86.58 379.45,48.7 498.91,-242.43 1952.84,-1569.27 2005.21,-2120.3 276.59,19.42 490.48,110.6 742.58,247.51 136.33,74.04 204.69,53.43 446.04,251.47 -467.36,-140.19 -675.66,-238.88 -962.9,228.8 -306.21,498.55 -584.27,1418.19 -1006.6,1813.18 -244.48,228.64 -650.88,540.26 -921.83,100.7zm1691.94 -5062.78c-440.39,338.79 -1493.63,178.91 -1223.35,-672.75 317.55,-3.24 1255.23,314.08 1223.35,672.75zm-3367.33 -296.45c-22.59,-186.89 9.25,-367.33 121.09,-520.25 307.47,-41.65 991.68,8.81 1234.21,205.68 -33.74,593.5 -961.1,508.83 -1355.3,314.57zm-152.77 2055.77l-180.53 -815.65c-241.58,36.84 -288.61,80.31 -371.07,-182.31 -54.42,-173.4 -129.11,-227.25 -189.22,-402.75 -100.44,-293.28 -187.01,-785.99 -107.85,-1081.45 242.96,-3.09 510.42,275.21 752.61,390.27 397.66,188.91 78.11,316.69 601.08,539.23 1286.77,547.55 1206.33,-691.87 1247.53,-893.98l460.88 7.34c-244.08,1041.56 1111.69,1088.17 1393.97,662.59 -93.55,-424.75 -715.41,-647.01 -1132.9,-696.11 153.37,-150.08 340.77,-135.07 576.82,-128.18 682.26,19.88 751.77,292.83 529.77,1171.81 -104.45,413.53 -416.84,1778.93 -563.69,1987.57 -384.3,545.99 -1033.21,912.12 -1744.94,713.07 -578.46,-161.78 -932.38,-526.89 -1152.31,-1073.91l-120.15 -197.54zm3742.55 -3916.12l-27.59 1505.22c-333.98,-518.12 -1370.66,-140.69 -1484.01,-126.68 -209.74,25.91 -339.82,-10.08 -578.35,46.21 6.14,364.94 1.47,930.84 -471.28,979.14 -346.7,35.42 -869.13,-90.79 -987.37,-427.48 306.84,57.27 569.46,143.66 890.44,67.95 314,-74.05 575.59,-187.19 482.26,-557.08 -209.07,-217.08 -1044.61,-264.65 -1338.15,-209.44 -124.88,183 -135.6,310.67 -158.75,527.27 -945.22,-292.63 -823.71,-769.19 -727.35,-1641.41 306.99,44.71 1040.39,536.63 2249.1,613.38 870.47,55.27 1569.95,-181.72 2151.05,-777.08zm486.97 -188.26c-25.33,94.9 55.81,158 -137.71,48.7 76.02,-117.04 59.08,-76.76 137.71,-48.7zm-38.42 -121.25l281.79 -59.29 65.31 259.61c-318.08,47.87 -131.76,-20.55 -347.1,-200.32zm-5161.29 -2231.52c-38.02,319.84 47.4,445.98 48.59,703.08 -339.07,-106.77 -1131.58,-532.92 -1536.09,-714.77 -236.73,-106.41 -383.51,-94.84 -370.13,-360.58 131.78,-133.95 1523.88,-519.74 1812.18,-602.96l1363.66 -410.75c156.44,-47.43 326.19,-74.03 427.71,-169.45 381.35,13.82 398.43,-207.78 898.06,-81.87l2512.31 674.64c406.82,109.94 1509.03,230.49 1286.66,783.24 -74.7,185.66 -1132.87,663.85 -1381.86,775.29l-381.48 -284.15c-337.46,-117.46 -751.31,-375.23 -1145.65,-516.89 -399.78,-143.6 -798.42,-275.99 -1212.06,-381.04 -764.95,-194.28 -2113.98,-458.54 -2321.9,586.21zm1745.92 -1555.43c-320.75,-5.35 -2696.11,786.07 -3208.27,937.25 -187.33,55.3 -714.04,197.55 -415.41,495.47l2075.08 976.63c-90.47,-326.67 -156.01,-460.11 -125.41,-818.91 165.69,-1018.73 1552.34,-737.53 2265.68,-544.42 482.4,130.6 1947.79,591.56 2275.25,898.49l349.25 241.16c-177.4,149.14 -802.94,436.15 -1052.63,569.28 -395.94,211.13 -724.12,386.06 -1193.73,318.43 -614.8,-88.53 -1943.43,-646.83 -2421.16,-644.92 100.41,768.83 -18.09,718.02 -172.87,1387.48 444.66,417.5 1638.88,758.63 2258.39,793.39 1220.05,68.44 1616.29,-337.27 2347.54,-697.92 -370.76,685.85 -1350.72,929.44 -2120.52,893.03 -1252.79,-59.27 -2018.84,-606.07 -2351.69,-649.86 -69.76,427.35 -38.34,858.43 -52.59,1277.03l-171.64 89.97c-65.44,674.28 112.96,1147.89 412.75,1755.82l287.42 15.82c30.59,132.26 62.3,270.72 95.22,404.35 34,137.99 46.62,234.62 143.61,315.01 4.28,941.1 2017.65,2453.62 3231.48,353.2 113.93,137.42 60.6,139.89 225.17,281.71 -37.69,541.91 -1215.54,1536.7 -1635.87,1865.73 -213.43,167.08 -320.92,288.35 -607.68,153 -165.56,-78.14 -345.12,-275.15 -437.1,-427.25 -171.74,-284.05 -280.99,-656.77 -329.41,-987.62 -28.73,-196.3 -6.06,-217.25 -86.04,-336.62 -230.14,392.68 -126.13,574.83 -708.66,750.48 -630.25,190.04 -1391.57,311.25 -1772.76,1145.85 -153.45,335.95 -394.62,618.2 -514.69,894.67 -120.19,276.77 -102.17,979.28 -132.92,1317.38 -170.2,1871.35 -406.3,1446.02 -372.31,3918.02 -371.99,326.37 -265.55,487.54 -909.58,545.39l84.23 248.61 45.2 -180.97c304.59,-19.11 520.42,-194.48 710.64,-415.08 315.22,-365.52 -81.14,-1279.53 346.44,-2888.12 164.83,-620.16 1119.62,-2650.6 1841.24,-2538.04 51.28,467.66 -481.71,1100 -483.32,1579.66 -91.56,99.86 -115.39,273.63 -152.35,433.47 -36.44,157.6 -63.42,312.35 -80.23,473.48 -124.35,1191.43 734.61,2248.53 1043.31,2222.28 100.08,-327.38 -61.99,-607.63 53.95,-899.99 94.08,28.21 82.21,-37.95 140.57,137.1 151.6,454.61 -93.33,2638.1 215.65,3399.7 -599.04,-181.83 -2033.64,-905.45 -2448.44,-213.96 -216.09,78.09 -597.19,456.93 -763.21,638.84 127.34,465.26 322.75,1797.09 489.59,2116.02l16.94 -91.91 -69.39 -364.01c1251.67,455.36 2913.02,213.97 4199.61,-39.98 104.01,242.68 96.89,169.65 384.26,241.99 -311.28,164.09 -3732.37,798.53 -4383.89,927.95 -340.69,67.67 -5911.69,-676.64 -7050.18,-813.04 -393.17,-47.11 -785.71,-95.21 -1178.39,-143.11 -385.96,-47.09 -813.22,8.36 -943.53,-374.32l-1404.14 -4679.43c197.08,547.01 491.79,1261.48 604.64,1565.93 367.6,991.67 658.04,2052.56 1055.39,3043.75l8349.44 1016.98c-89.88,-578.75 -379.94,-1425.4 -614.92,-1965.51 -510.48,-1173.31 -871.7,-1284.82 -996.14,-1555.85 -643.39,-297.83 -714.12,-545.26 -1553.54,-331.71 -939.02,238.89 -2361.71,634.8 -3086.16,-264.69 -302.87,-376.08 -168.42,-928.1 -298.96,-1681.39 -218.11,-356.21 -318.32,-572.12 -702.96,-778.96 -296.05,-159.19 -1009.51,-299.31 -1209.43,-9.37 508.74,-68.26 653.68,-203.93 1194.64,72.98 285.69,146.25 585.52,499.1 642.42,821.49 277,444.64 -101.22,1126.96 330.63,1617.84 392.17,445.79 813.4,572.14 1430.72,584.92 608.7,12.61 1150.09,-133 1724.55,-291.88 502.29,-138.92 1148.85,-53.46 1467.84,376.53 692.61,389.65 1425.23,2511.19 1573.88,3334.42l-8210.32 -1033.53c-251.58,-840.16 -2136.6,-5899.34 -2095.89,-6255.94 206.66,-308.53 622.23,-190.24 985.89,-178.06 379.5,12.72 758.93,22.5 1138.53,35.11l5692.61 178.93c349.23,11.67 663.94,-40.38 909.62,229.42 297.51,326.74 1488.71,5281.28 1796.29,6440.81 42.07,158.58 78.61,314.1 119.53,472.15 125.75,485.8 60.14,327.03 165.68,346.69 -12.05,-95.78 -334.93,-1314.63 -501.52,-1939.65 -144.26,-379.08 -672.13,-2620.37 -852.24,-3270.05 -624.58,-2253.17 -307.06,-2300.66 -1801.98,-2353.67l-5983.29 -192.39c-646.39,-22 -1666.07,-194.56 -1761.79,280.09 -55.21,273.77 756.12,2751.06 888.64,3225.37 150.44,538.44 315.03,1082.52 475.36,1618.38 133.04,444.65 299.37,1186.05 467.32,1582.04 186.54,439.84 1202.39,411.89 1631.38,463.27l5491.07 668.02c575.27,69.78 1310.1,200.57 1869.51,227.87 228.43,11.15 1820.16,-290.85 2691.69,-487.58 1273.24,-287.41 1967.85,-507.01 2546.56,-492.92 1836.01,44.74 3392.27,-92.95 5100.6,-102.99 318.09,-1.87 620.04,88.92 789.35,-191.45 238.32,-394.63 375.45,-1134.56 449,-1604.4 98.36,-628.27 155.51,-1278.83 174.01,-1914.99 11.38,-391.42 -74.08,-604.37 -94.3,-954.47 -88.72,-1536.72 123.11,-2967.01 -325.19,-4768.66 -318.5,-1280.06 -819.59,-1638.56 -1931.7,-2215.15 -452.3,-234.49 -942.58,-430.57 -1424.04,-625.9 -343.52,-139.37 -1266.86,-395.35 -1498.28,-535.29 -21.92,-56.21 -102.5,-185.45 -74.53,-400.6 50.34,-387.06 241.49,-955.54 262.21,-1190.38 10.8,-125.71 95.47,-301.53 133.32,-446.94 159.04,-610.98 114.55,-1646.87 126.05,-2307.67l-82.83 -28.15c214.76,-369.41 430.17,-481.63 280.56,-592.42 -36.78,-249.7 -28.08,-967.95 -95.61,-1095.67 -149.31,352.13 30.61,850.33 20.21,1223.6 -547.59,566.9 -1506.32,899.1 -2309.91,905.65 -585.24,4.77 -2041.01,-336.89 -2402.78,-763.11 181.44,-479.73 227.02,-737.46 191.1,-1252.27 709.23,77.34 1735.82,590.92 2438.3,638.95 602.1,41.16 1602.8,-633.75 2187.7,-890.49 567.16,357.87 208.71,945.7 138.98,1516.25 -172.83,64.97 -161.87,58.48 -170.31,275.72l248.84 28.03c112.86,677.64 240.46,2495.93 184.4,3158.84l-403.46 21.27c28.84,-985.35 116.29,-1982.82 128.63,-2992.18 -116.7,60.99 -84.17,139.29 -85.29,317.72l-114.49 2713.04c202.19,80.1 337.56,48.99 545.81,-7.05 99.55,-528.31 -172.04,-2605.94 -162.75,-3221.91l269.95 -12.25 -97.01 -420.42 -237.97 19.99c8.73,-681.79 434.79,-797.05 -141.63,-1434.28 297.49,-249.43 1282.87,-543.89 1402.91,-866.19 225.73,-606.11 -886.56,-720.94 -1279.22,-822.46 -585.35,-151.36 -1171.5,-325.19 -1756.7,-472.61 -287.07,-72.32 -575.07,-156.7 -860.26,-232.85 -304.48,-81.32 -751.49,35.88 -886.82,160.64z"></path> </g> </g> </svg> 